<?xml version="1.0" encoding="UTF-8"?>
<svg id="Layer_1" data-name="Layer 1" xmlns="http://www.w3.org/2000/svg" viewBox="0 0 70.08 74.47">
  <defs>
    <style>
      .cls-1 {
        fill: #010000;
      }

      .cls-2 {
        fill: #fcca00;
      }
    </style>
  </defs>
  <path class="cls-1" d="M66.73,74.47c-1.9-.68-3.79-1.06-5.66-1.87-11.88-5.14-20.7-17.93-16.58-31.14-3.64,1.91-7.33,5-7.9,9.32-1.27.25-2-1.4-2.5-2.39-4.78-9.39-3.48-22,3.71-29.78.74-.8,1.95-1.58,2.51-2.27.19-.24.46-.31.35-.72-4.65-.68-9.69,1-13.61,3.49-1.68,1.07-3.17,2.71-4.67,3.7-.29.19-.48.29-.85.23-.04-.57,0-1.12.11-1.69C22.82,15.34,32.2.54,39.11.54h30.74l.24,50.24v23.44c-.32.24-1.06.24-1.44.24h-1.91Z"/>
  <path class="cls-2" d="M44.49,41.45c-3.64,1.91-7.33,5-7.9,9.32-1.27.25-2-1.4-2.5-2.39-4.78-9.39-3.48-22,3.71-29.78.74-.8,1.95-1.58,2.51-2.27.19-.24.46-.31.35-.72-4.65-.68-9.69,1-13.61,3.49-1.68,1.07-3.17,2.71-4.67,3.7-.29.19-.48.29-.85.23-.04-.57,0-1.12.11-1.69C22.82,15.34,32.2.54,39.11.54c0,0,1.09-.34,1.22-.5,0,0-24.27-.11-24.44.02l-1.05,1.44c-4.65,5.9-8,13.65-6.59,21.3.99,5.35,4.31,9.96,8.39,13.38.52.08.28-.08.36-.35.26-.88.37-1.77.71-2.65,1.68-4.42,5.99-7.12,10.52-7.89-8.08,12.6-4.73,29.39,4.55,40.31.16-3.64.82-7.86,3.47-10.52,3.27,8.24,9.79,15.3,18.77,17.11,1.09.22,3.67.27,4.38.64.48.26.46.38.41.9,0,0-.04.55.02.72h6.91c-1.9-.68-3.79-1.06-5.66-1.87-11.88-5.14-20.7-17.93-16.58-31.14Z"/>
  <path class="cls-1" d="M14.83,1.5c-4.65,5.9-8,13.65-6.59,21.3.99,5.35,4.31,9.96,8.39,13.38.52.08.28-.08.36-.35.26-.88.37-1.77.71-2.65,1.68-4.42,5.99-7.12,10.52-7.89-8.08,12.6-4.73,29.39,4.55,40.31.16-3.64.82-7.86,3.47-10.52,3.27,8.24,9.79,15.3,18.77,17.11,1.09.22,3.67.27,4.38.64.48.26.46.38.41.9l-59.79-.24V1.5h14.83Z"/>
</svg>